<?xml version="1.0" encoding="UTF-8" standalone="no"?>
<svg
   xmlns:dc="http://purl.org/dc/elements/1.1/"
   xmlns:cc="http://creativecommons.org/ns#"
   xmlns:rdf="http://www.w3.org/1999/02/22-rdf-syntax-ns#"
   xmlns:svg="http://www.w3.org/2000/svg"
   xmlns="http://www.w3.org/2000/svg"
   xmlns:sodipodi="http://sodipodi.sourceforge.net/DTD/sodipodi-0.dtd"
   xmlns:inkscape="http://www.inkscape.org/namespaces/inkscape"
   version="1.1"
   x="0px"
   y="0px"
   viewBox="0 0 67 65.109001"
   enable-background="new 0 0 67 67"
   xml:space="preserve"
   id="svg18"
   sodipodi:docname="rbefdata_logo.svg"
   width="67"
   height="65.109001"
   inkscape:version="0.92.4 5da689c313, 2019-01-14"><metadata
     id="metadata24"><rdf:RDF><cc:Work
         rdf:about=""><dc:format>image/svg+xml</dc:format><dc:type
           rdf:resource="http://purl.org/dc/dcmitype/StillImage" /><dc:title></dc:title></cc:Work></rdf:RDF></metadata><defs
     id="defs22" /><sodipodi:namedview
     pagecolor="#ffffff"
     bordercolor="#666666"
     borderopacity="1"
     objecttolerance="10"
     gridtolerance="10"
     guidetolerance="10"
     inkscape:pageopacity="0"
     inkscape:pageshadow="2"
     inkscape:window-width="1366"
     inkscape:window-height="695"
     id="namedview20"
     showgrid="false"
     inkscape:zoom="2.8179104"
     inkscape:cx="-15.117585"
     inkscape:cy="41.165254"
     inkscape:window-x="0"
     inkscape:window-y="73"
     inkscape:window-maximized="0"
     inkscape:current-layer="svg18" /><g
     id="g12"
     transform="translate(2.33e-5,-0.94543817)"><path
       d="m 32.077637,57.443539 c 1.296875,0 2.352539,-1.05127 2.352539,-2.343262 0,-1.297363 -1.055664,-2.352539 -2.352539,-2.352539 -1.291993,0 -2.34375,1.055176 -2.34375,2.352539 0,1.291992 1.051757,2.343262 2.34375,2.343262 z m 0,-3.195801 c 0.478515,0 0.852539,0.374512 0.852539,0.852539 0,0.464844 -0.382813,0.843262 -0.852539,0.843262 -0.464844,0 -0.84375,-0.378418 -0.84375,-0.843262 0,-0.470215 0.378906,-0.852539 0.84375,-0.852539 z"
       id="path2"
       inkscape:connector-curvature="0" /><path
       d="m 61.896973,11.845396 c -0.163086,-0.595215 -0.367188,-1.158691 -0.609375,-1.68457 l 1.836914,-1.8701175 c 0.285156,-0.2905273 0.287109,-0.7553716 0.0029,-1.047852 L 59.177246,3.1730323 C 59.036621,3.0280128 58.843262,2.9459815 58.641113,2.9454932 58.418457,2.9406104 58.245606,3.0260596 58.103028,3.1710791 L 56.42041,4.8908054 C 55.849121,4.5768406 55.253418,4.313657 54.63916,4.1041843 V 1.6954935 c 0,-0.4140625 -0.335937,-0.75 -0.75,-0.75 h -5.579101 c -0.414063,0 -0.75,0.3359375 -0.75,0.75 V 4.1051612 C 46.940918,4.3170753 46.349121,4.5792823 45.793457,4.8888526 L 44.115723,3.1715677 C 43.975098,3.0270364 43.781738,2.9454935 43.57959,2.9454935 c 0,0 0,0 -9.77e-4,0 -0.202148,0 -0.395507,0.082031 -0.536132,0.2270508 L 39.08252,7.2423685 c -0.28418,0.2915039 -0.283203,0.7563477 9.76e-4,1.0473638 l 1.831055,1.8730467 c -0.236328,0.521485 -0.439453,1.078614 -0.612305,1.682617 h -2.652344 c -0.414062,0 -0.75,0.335938 -0.75,0.75 v 1.459961 H 27.57959 V 8.1154156 c 0,-0.414063 -0.335938,-0.7500005 -0.75,-0.7500005 h -6.969727 c -0.414062,0 -0.75,0.3359375 -0.75,0.7500005 V 14.055357 H 5.2192383 c -1.9462891,0 -3.5292969,1.583496 -3.5292969,3.530273 0,15.589232 0,31.908202 0,38.124512 0,1.946289 1.5830078,3.529297 3.5292969,3.529297 H 24.839355 v 5.314945 h -2.99414 c -0.414063,0 -0.75,0.335938 -0.75,0.75 0,0.414063 0.335937,0.75 0.75,0.75 7.400818,0 13.049072,0 20.473633,0 0.414062,0 0.75,-0.335937 0.75,-0.75 0,-0.414062 -0.335938,-0.75 -0.75,-0.75 h -2.994141 v -5.314945 h 19.621094 c 1.945312,0 3.52832,-1.583008 3.52832,-3.529297 -0.0053,-33.934692 -0.0048,-31.091062 -0.0049,-31.339109 l 0.65625,-0.671143 c 0.28418,-0.290527 0.285157,-0.753906 0.0029,-1.045898 l -0.65918,-0.680298 v -2.898316 h 2.090821 c 0.414062,0 0.75,-0.335937 0.75,-0.75 v -5.729982 c 0,-0.414063 -0.335938,-0.75 -0.75,-0.75 z M 27.57959,15.555357 h 9.320312 v 2.200195 H 27.57959 Z m 0,3.700195 h 13.091797 c 0.01453,0.0376 0.03625,0.0752 0.05127,0.112793 0.143799,0.360108 0.302918,0.719605 0.492676,1.083008 l -2.133789,2.202148 c -0.283203,0.291993 -0.282227,0.756348 0.0029,1.046875 l 3.95996,4.04004 c 0.140625,0.144043 0.333985,0.225097 0.535157,0.225097 h 9.76e-4 c 0.202149,-4.88e-4 0.395508,-0.08203 0.536133,-0.226562 l 2.265625,-2.325684 c 0.387695,0.184082 0.78125,0.34375 1.177735,0.477051 v 2.928711 l -4.682373,3.054565 c -0.316712,-0.207397 -0.693055,-0.330932 -1.100098,-0.330932 -0.410034,0 -0.789368,0.124756 -1.107544,0.334961 l -7.602173,-5.859375 c -0.254883,-0.195801 -0.606445,-0.208985 -0.875,-0.0293 l -8.772949,5.86206 c -0.308472,-0.191894 -0.668762,-0.308349 -1.059021,-0.308349 -0.270264,0 -0.526673,0.05566 -0.761963,0.152099 l -4.633484,-4.373047 c 0.113709,-0.252929 0.180359,-0.530761 0.180359,-0.823974 0,-1.121826 -0.902893,-2.03833 -2.024597,-2.03833 -1.121765,0 -2.024719,0.916504 -2.024719,2.03833 0,1.108032 0.902954,2.024658 2.024719,2.024658 0.272583,0 0.531372,-0.05615 0.76831,-0.153931 l 4.631775,4.37158 c -0.116394,0.257325 -0.185119,0.54065 -0.185119,0.840943 0,1.108154 0.902954,2.024658 2.024719,2.024658 1.121704,0 2.024658,-0.916504 2.024658,-2.024658 0,-0.180908 -0.03107,-0.353394 -0.0752,-0.520752 l 8.268249,-5.524901 7.233948,5.575438 c -0.03583,0.151611 -0.05969,0.307861 -0.05969,0.470215 0,1.108154 0.902954,2.024658 2.024719,2.024658 1.121704,0 2.024597,-0.916504 2.024597,-2.024658 0,-0.165406 -0.02509,-0.324219 -0.0622,-0.478394 l 4.793823,-3.126829 h 5.355347 c 0.414063,0 0.75,-0.335938 0.75,-0.75 v -3.333496 c 0.399414,-0.133789 0.796875,-0.293945 1.188477,-0.479492 l 1.442382,1.478027 v 20.35449 H 6.8999023 V 19.255552 H 19.109863 v 0.810059 h -2.990234 c -0.303711,0 -0.577149,0.182617 -0.692383,0.462891 -0.116211,0.279785 -0.05273,0.602539 0.162109,0.816894 l 7.229493,7.239746 c 0.140625,0.141113 0.331054,0.220215 0.530273,0.220215 0.199219,0 0.389648,-0.0791 0.530273,-0.220215 l 7.220703,-7.22998 c 0.214844,-0.214356 0.278321,-0.53711 0.16211,-0.816895 -0.115235,-0.280273 -0.388672,-0.46289 -0.692383,-0.46289 H 27.57959 Z m -7.719727,2.310059 c 0.414063,0 0.75,-0.335938 0.75,-0.75 0,-4.266846 0,-7.666626 0,-11.9501954 h 5.469727 c 0,4.2812504 0,7.6782224 0,11.9599604 0,0.414063 0.335937,0.75 0.75,0.75 h 1.931641 l -5.41211,5.418457 -5.420898,-5.428222 z M 3.1899414,17.58563 c 0,-1.119629 0.9101563,-2.030273 2.0292969,-2.030273 H 19.109863 v 2.200195 H 6.1499023 c -0.4140625,0 -0.75,0.335938 -0.75,0.75 v 29.489744 c 0,0.414063 0.3359375,0.75 0.75,0.75 H 58.02002 c 0.414062,0 0.75,-0.335937 0.75,-0.75 v -20.05615 c 0.151733,-0.02759 0.296081,-0.0874 0.405273,-0.199219 l 1.793945,-1.834473 V 50.945492 H 3.1899414 Z M 37.824707,64.554382 H 26.339355 V 59.239437 H 37.824707 Z M 60.974121,55.71014 c 0,1.119141 -0.910156,2.029297 -2.02832,2.029297 -11.266785,0 -42.118408,0 -53.7265627,0 -1.1191406,0 -2.0292969,-0.910156 -2.0292969,-2.029297 V 52.451839 H 60.974121 Z m 2.835938,-38.134764 h -2.090821 -0.649414 c -0.328125,0 -0.618164,0.213379 -0.71582,0.526368 -0.220703,0.707031 -0.526367,1.393554 -0.933594,2.098632 -0.167969,0.29004 -0.12207,0.656739 0.111328,0.897461 l 2.011719,2.074707 -2.905273,2.97168 -2.121117,-2.172852 c -0.234352,-0.239257 -0.596657,-0.29541 -0.892555,-0.13623 -0.63086,0.338867 -1.280274,0.600586 -1.931641,0.776367 -0.244629,0.06628 -0.433777,0.249878 -0.513061,0.480469 -0.02643,0.0769 -0.04065,0.158935 -0.04065,0.243652 v 3.140137 H 49.060059 V 25.33563 c 0,-0.33789 -0.225586,-0.633789 -0.551758,-0.723144 -0.648438,-0.178223 -1.295898,-0.439453 -1.922852,-0.777344 -0.291992,-0.15918 -0.659179,-0.102539 -0.892578,0.136719 l -2.115234,2.17041 -2.910156,-2.969727 2.010742,-2.075683 c 0.232422,-0.240235 0.27832,-0.605957 0.111328,-0.895996 -0.379883,-0.65918 -0.666992,-1.290528 -0.908203,-2.022461 -9.77e-4,-0.002 -0.03223,-0.09375 -0.03223,-0.09521 -0.103515,-0.303711 -0.389648,-0.507813 -0.709961,-0.507813 h -2.739258 v -2.770019 -1.459961 h 2.479493 c 0.345703,0 0.646484,-0.236328 0.728515,-0.572266 0.223633,-0.915527 0.510742,-1.704589 0.87793,-2.412597 0.148437,-0.287598 0.09668,-0.6381839 -0.129883,-0.8696292 l -1.688476,-1.7270513 2.913085,-2.9936523 1.552735,1.5893555 c 0.248047,0.2548828 0.641601,0.2988281 0.939453,0.1083984 0.737305,-0.4702148 1.55957,-0.8374023 2.444313,-1.0917969 0.321312,-0.092285 0.542992,-0.3862305 0.542992,-0.7207031 V 2.4454935 h 4.079101 v 2.2099607 c 0,0.3354492 0.222656,0.6298828 0.544922,0.7216797 0.866211,0.2460938 1.697266,0.6142578 2.46875,1.0952148 0.298828,0.1865234 0.691406,0.1391602 0.9375,-0.1171875 l 1.546875,-1.5849609 2.904297,2.9921875 -1.697266,1.7275395 c -0.229492,0.2333984 -0.280273,0.5883787 -0.126953,0.8774417 0.375,0.706054 0.665039,1.510254 0.860352,2.391113 0.07617,0.342773 0.380859,0.586914 0.732422,0.586914 h 2.5 v 4.22998 z"
       id="path4"
       inkscape:connector-curvature="0" /><path
       d="m 51.129394,6.2658057 c -4.766296,0 -8.540039,3.9300543 -8.540039,8.7075193 0,4.820313 3.831055,8.741699 8.540039,8.741699 4.790101,0 8.533204,-3.989135 8.533204,-8.741699 0,-4.72644 -3.726441,-8.7075193 -8.533204,-8.7075193 z m 0,15.9492193 c -3.881835,0 -7.040039,-3.248535 -7.040039,-7.241699 0,-3.959717 3.124085,-7.2075203 7.040039,-7.2075203 3.959534,0 7.033204,3.2941903 7.033204,7.2075203 0,3.946045 -3.09906,7.241699 -7.033204,7.241699 z"
       id="path6"
       inkscape:connector-curvature="0" /><path
       d="m 19.862793,6.1549659 h 6.970703 c 0.414063,0 0.75,-0.3359375 0.75,-0.75 V 1.7697122 c 0,-0.4140625 -0.335937,-0.75 -0.75,-0.75 h -6.970703 c -0.414063,0 -0.75,0.3359375 -0.75,0.75 v 3.6352537 c 0,0.4140625 0.335937,0.75 0.75,0.75 z m 0.75,-3.6352537 h 5.470703 v 2.1352537 h -5.470703 z"
       id="path8"
       inkscape:connector-curvature="0" /><path
       d="m 8.9926758,39.473812 v 5.102539 c 0,0.414063 0.3359375,0.75 0.75,0.75 H 52.752441 c 0.414063,0 0.75,-0.335937 0.75,-0.75 v -12.8999 c 0,-0.280762 -0.157226,-0.538086 -0.40625,-0.666504 -0.25,-0.129883 -0.551757,-0.106934 -0.77832,0.05566 l -10.655273,7.584471 -8.588867,-6.623536 c -0.254883,-0.196775 -0.607422,-0.208982 -0.874024,-0.03027 l -9.75,6.508299 -6.816406,-6.429688 c -0.15332,-0.144529 -0.360352,-0.220701 -0.570313,-0.202634 -0.210937,0.01563 -0.404297,0.11914 -0.534179,0.285154 l -5.375977,6.853516 c -0.1035156,0.131835 -0.1601562,0.294921 -0.1601562,0.46289 z m 1.5000002,0.259277 4.708984,-6.003418 6.65332,6.275879 c 0.253907,0.239746 0.641602,0.271485 0.930665,0.07861 l 9.798828,-6.541016 8.602539,6.633789 c 0.261719,0.20166 0.624023,0.208985 0.892578,0.01709 l 9.922852,-7.062988 V 43.826351 H 10.492676 Z"
       id="path10"
       inkscape:connector-curvature="0" /></g></svg>